<?xml version="1.0" encoding="UTF-8"?>
<svg xmlns="http://www.w3.org/2000/svg" xmlns:xlink="http://www.w3.org/1999/xlink" width="564px" height="114px" viewBox="0 0 564 114" version="1.1">
<g id="surface1">
<path style=" stroke:none;fill-rule:nonzero;fill:rgb(0%,0%,0%);fill-opacity:1;" d="M 352.324219 113.382812 C 346.261719 112.289062 339.457031 109.46875 334.875 106.152344 C 330.785156 103.152344 326.0625 97.40625 324.195312 93.171875 C 321.867188 87.808594 320.773438 82.34375 320.773438 76.066406 C 320.773438 54.300781 332.9375 39.734375 353.734375 36.523438 C 357.929688 35.890625 366.421875 35.890625 370.792969 36.558594 C 380.804688 38.078125 389.792969 42.875 395.257812 49.714844 C 400.546875 56.277344 402.941406 63.824219 402.941406 73.773438 C 402.941406 79.414062 402.378906 83.367188 400.933594 87.953125 C 396.667969 101.425781 385.527344 110.914062 370.902344 113.453125 C 367.023438 114.125 356.238281 114.089844 352.324219 113.382812 Z M 367.128906 107.808594 C 370.757812 107.035156 374.8125 104.917969 377.597656 102.378906 C 384.824219 95.710938 388.597656 83.402344 387.46875 70.316406 C 386.515625 59.453125 383.765625 52.644531 378.234375 47.421875 C 373.507812 42.945312 365.121094 40.828125 357.503906 42.167969 C 346.894531 44.039062 339.667969 52.46875 336.847656 66.363281 C 334.558594 77.722656 337.203125 91.585938 343.125 99.414062 C 346.507812 103.859375 352.007812 107.140625 357.789062 108.09375 C 359.867188 108.445312 364.835938 108.304688 367.128906 107.808594 Z M 199.867188 112.675781 C 196.449219 108.269531 149.8125 61.636719 148.332031 61.109375 C 147.554688 60.863281 148.367188 101.390625 149.320312 110.738281 L 149.53125 112.925781 L 139.941406 112.925781 L 139.941406 111.796875 C 139.941406 111.160156 140.1875 106.820312 140.472656 102.167969 C 140.824219 96.027344 141 85.90625 141 65.414062 L 141 37.089844 L 146.21875 37.089844 L 149.320312 40.546875 C 154.183594 45.871094 163.242188 55.359375 169.976562 62.132812 C 180.972656 73.136719 194.367188 86.257812 196.308594 87.84375 L 198.175781 89.433594 L 197.964844 78.320312 C 197.363281 50.492188 197.011719 38.148438 196.835938 37.617188 C 196.660156 37.160156 197.222656 37.089844 201.453125 37.089844 L 206.316406 37.089844 L 206.070312 42.132812 C 205.964844 44.882812 205.753906 62.097656 205.613281 80.402344 L 205.402344 113.628906 L 203.003906 113.628906 C 200.820312 113.628906 200.574219 113.558594 199.867188 112.675781 Z M 0 75.007812 L 0 37.089844 L 15.898438 37.089844 C 29.257812 37.089844 32.148438 37.195312 34.296875 37.652344 C 44.765625 40.015625 50.691406 47.917969 49.949219 58.5 C 49.386719 66.398438 45.15625 72.820312 38.28125 76.207031 C 33.136719 78.746094 30.527344 79.203125 21.960938 79.238281 L 14.488281 79.238281 L 14.628906 80.472656 C 14.699219 81.144531 14.875 88.128906 14.980469 95.992188 C 15.085938 103.859375 15.296875 110.878906 15.402344 111.617188 L 15.617188 112.925781 L 0 112.925781 Z M 25.554688 73.101562 C 28.339844 72.113281 30.28125 70.703125 32.078125 68.269531 C 34.367188 65.234375 35.390625 61.921875 35.425781 57.371094 C 35.425781 50.808594 32.992188 46.222656 28.269531 43.894531 C 26.472656 43.015625 25.804688 42.910156 21.925781 42.769531 C 19.527344 42.730469 16.882812 42.769531 16.003906 42.910156 L 14.453125 43.121094 L 14.453125 58.253906 C 14.453125 72.359375 14.488281 73.382812 15.085938 73.523438 C 15.402344 73.632812 17.484375 73.703125 19.667969 73.738281 C 22.734375 73.773438 24.074219 73.632812 25.554688 73.101562 Z M 51.113281 112.570312 C 51.113281 112.359375 51.5 111.441406 51.957031 110.527344 C 52.417969 109.609375 54.003906 106.152344 55.449219 102.871094 C 56.929688 99.554688 59.253906 94.335938 60.628906 91.230469 C 65.953125 79.484375 66.269531 78.710938 71.910156 66.011719 C 77.585938 53.171875 83.894531 37.441406 83.894531 36.171875 C 83.894531 36.066406 85.585938 36.066406 87.632812 36.101562 L 91.367188 36.207031 L 93.660156 42.378906 C 97.855469 53.773438 102.964844 66.292969 108.605469 79.0625 C 109.132812 80.332031 111.777344 86.292969 114.421875 92.289062 C 117.066406 98.320312 119.921875 104.742188 120.730469 106.574219 C 121.542969 108.410156 122.5625 110.597656 122.988281 111.441406 L 123.726562 112.925781 L 106.597656 112.925781 L 104.199219 106.503906 C 102.859375 102.941406 100.816406 97.546875 99.617188 94.511719 L 97.464844 88.9375 L 83.859375 88.9375 C 71.167969 88.9375 70.21875 88.972656 70.042969 89.574219 C 69.9375 89.890625 69.054688 92.148438 68.066406 94.546875 C 65.988281 99.660156 62.640625 108.832031 61.96875 111.265625 L 61.546875 112.925781 L 56.328125 112.925781 C 52.980469 112.925781 51.113281 112.78125 51.113281 112.570312 Z M 93.09375 81.957031 L 94.046875 81.707031 L 92.109375 76.59375 C 91.050781 73.773438 89.570312 69.890625 88.792969 67.953125 C 88.054688 66.011719 86.644531 62.378906 85.726562 59.910156 C 84.070312 55.535156 84 55.429688 83.578125 56.382812 C 83.332031 56.910156 82.097656 59.839844 80.828125 62.835938 C 79.59375 65.835938 78.042969 69.574219 77.375 71.125 C 74.554688 77.828125 73.039062 81.707031 73.179688 81.882812 C 73.707031 82.414062 91.121094 82.449219 93.09375 81.957031 Z M 233.109375 96.628906 C 233.25 87.632812 233.320312 70.5625 233.25 58.710938 L 233.074219 37.089844 L 250.839844 37.089844 C 264.550781 37.089844 269.484375 37.195312 272.589844 37.617188 C 283.058594 38.992188 290.425781 42.730469 296.207031 49.609375 C 301.351562 55.746094 303.855469 63.4375 303.855469 73.03125 C 303.820312 89.996094 296.804688 102.308594 283.445312 108.867188 C 280.625 110.277344 278.015625 111.195312 273.714844 112.253906 C 272.445312 112.570312 266.347656 112.710938 252.390625 112.820312 L 232.828125 112.960938 Z M 268.675781 105.941406 C 272.269531 104.847656 275.796875 102.800781 278.722656 100.085938 C 285.453125 93.804688 288.449219 85.480469 288.449219 73.242188 C 288.378906 54.019531 277.558594 43.085938 258.59375 43.085938 C 256.796875 43.085938 253.660156 43.191406 251.613281 43.296875 L 247.914062 43.542969 L 247.667969 46.753906 C 247.171875 53.382812 247.417969 105.695312 247.949219 106.257812 C 247.984375 106.292969 250.203125 106.433594 252.917969 106.574219 C 260.425781 107 265.890625 106.75 268.675781 105.941406 Z M 422.859375 104.742188 C 423.210938 94.335938 423.210938 38.957031 422.859375 37.898438 L 422.613281 37.089844 L 439.671875 37.089844 C 458.777344 37.089844 460.363281 37.230469 464.804688 39.347656 C 467.765625 40.757812 471.011719 43.753906 472.421875 46.472656 C 474.324219 50.035156 474.886719 55.078125 473.9375 59.699219 C 472.492188 66.578125 467.484375 71.621094 459.378906 74.371094 C 457.582031 74.972656 456.027344 75.535156 455.921875 75.640625 C 455.78125 75.78125 458.53125 79.839844 465.757812 90.101562 C 468.789062 94.40625 476.652344 104.953125 480.035156 109.21875 L 482.820312 112.746094 L 473.617188 112.855469 C 468.578125 112.890625 464.242188 112.855469 464.03125 112.78125 C 463.820312 112.710938 462.726562 111.125 461.5625 109.257812 C 457.15625 102.058594 447.039062 87.105469 440.308594 77.757812 C 439.921875 77.195312 439.355469 76.980469 438.476562 76.945312 C 437.3125 76.945312 437.242188 77.015625 437.3125 77.933594 C 437.382812 78.464844 437.488281 86.539062 437.59375 95.921875 L 437.734375 112.925781 L 422.578125 112.925781 Z M 448.589844 71.515625 C 453.140625 70.5625 456.3125 67.988281 458.355469 63.613281 C 459.34375 61.496094 459.484375 60.863281 459.589844 57.335938 C 459.800781 51.375 458.53125 48.023438 455.183594 45.554688 C 452.011719 43.191406 448.097656 42.449219 441.222656 42.910156 L 437.101562 43.15625 L 437.101562 71.621094 L 439.320312 71.761719 C 444.113281 72.007812 446.546875 71.972656 448.589844 71.515625 Z M 491.878906 111.796875 C 492.160156 111.160156 493.605469 107.949219 495.085938 104.636719 C 496.566406 101.355469 498.257812 97.617188 498.789062 96.347656 C 499.316406 95.078125 500.304688 92.855469 501.007812 91.40625 C 502.136719 88.902344 503.441406 86.082031 506.542969 79.0625 C 507.28125 77.40625 508.304688 75.113281 508.832031 73.949219 C 509.679688 72.078125 510.703125 69.75 514.648438 60.722656 C 517.714844 53.703125 521.3125 44.917969 523.039062 40.085938 L 524.449219 36.207031 L 528.152344 36.101562 L 531.851562 35.996094 L 532.453125 37.863281 C 533.121094 39.875 534.8125 44.460938 537.597656 51.550781 C 539.183594 55.675781 540.171875 58.109375 543.378906 65.835938 C 545.386719 70.703125 549.511719 80.296875 550.957031 83.472656 C 551.308594 84.246094 552.4375 86.859375 553.53125 89.292969 C 557.230469 97.6875 559.382812 102.554688 561.671875 107.597656 C 562.941406 110.382812 564 112.710938 564 112.78125 C 564 112.855469 560.191406 112.925781 555.574219 112.925781 L 547.152344 112.925781 L 545.742188 109.328125 C 544.964844 107.316406 543.660156 103.964844 542.851562 101.8125 C 542.039062 99.695312 540.558594 95.921875 539.570312 93.417969 L 537.808594 88.9375 L 524.238281 89.007812 L 510.703125 89.117188 L 508.128906 95.5 C 506.71875 99.027344 504.746094 104.351562 503.6875 107.421875 L 501.820312 112.925781 L 491.386719 112.925781 Z M 533.261719 82.027344 C 533.859375 81.917969 534.390625 81.8125 534.390625 81.742188 C 534.390625 81.496094 525.894531 59.097656 524.835938 56.558594 L 524.34375 55.359375 L 522.96875 58.675781 C 522.230469 60.472656 521.101562 63.226562 520.429688 64.777344 C 519.796875 66.328125 518 70.738281 516.414062 74.582031 C 514.789062 78.429688 513.628906 81.671875 513.769531 81.8125 C 514.296875 82.34375 530.230469 82.519531 533.261719 82.027344 Z M 352.886719 31.621094 C 352.148438 29.222656 352.183594 29.046875 353.167969 28.835938 C 355.179688 28.375 365.472656 28.199219 368.503906 28.589844 C 370.230469 28.800781 371.675781 29.011719 371.746094 29.082031 C 371.816406 29.152344 371.605469 29.964844 371.324219 30.953125 L 370.757812 32.679688 L 353.203125 32.679688 Z M 351.796875 25.730469 C 350.242188 24.039062 351.476562 21.214844 353.769531 21.214844 C 355.917969 21.214844 357.117188 23.898438 355.8125 25.730469 C 355.074219 26.824219 352.816406 26.824219 351.796875 25.730469 Z M 368.046875 25.589844 C 367.058594 24.355469 367.128906 23.296875 368.1875 22.132812 C 369.3125 20.933594 370.902344 20.898438 372.0625 22.097656 C 373.789062 23.828125 372.628906 26.507812 370.125 26.507812 C 369.066406 26.507812 368.609375 26.296875 368.046875 25.589844 Z M 360.785156 25.730469 C 358.984375 24.777344 358.667969 22.769531 360.078125 21.394531 C 361.136719 20.300781 362.40625 20.265625 363.640625 21.320312 C 364.90625 22.449219 364.90625 24.25 363.605469 25.378906 C 362.582031 26.226562 361.839844 26.332031 360.785156 25.730469 Z M 348.128906 15.855469 C 344.390625 3.722656 343.6875 1.359375 343.757812 1.289062 C 343.933594 1.109375 355.320312 18.253906 355.320312 18.640625 C 355.320312 18.851562 354.226562 19.101562 352.886719 19.242188 C 351.546875 19.347656 350.207031 19.558594 349.890625 19.664062 C 349.46875 19.804688 349.117188 19.03125 348.128906 15.855469 Z M 372.769531 19.417969 C 371.992188 19.277344 370.757812 19.136719 370.054688 19.136719 C 369.347656 19.101562 368.679688 18.992188 368.574219 18.816406 C 368.503906 18.675781 369.347656 17.125 370.511719 15.394531 C 371.675781 13.632812 374.214844 9.789062 376.1875 6.824219 C 378.125 3.863281 379.785156 1.5 379.855469 1.570312 C 379.996094 1.710938 379.359375 3.96875 376.644531 12.925781 C 375.976562 15.078125 375.273438 17.476562 375.058594 18.324219 C 374.847656 19.136719 374.566406 19.769531 374.425781 19.769531 C 374.285156 19.734375 373.542969 19.59375 372.769531 19.417969 Z M 358.84375 18.148438 C 358.914062 16.488281 361.945312 -0.40625 362.125 0.0546875 C 362.300781 0.511719 365.191406 17.9375 365.191406 18.535156 C 365.191406 18.640625 363.78125 18.746094 362.015625 18.746094 C 359.234375 18.746094 358.84375 18.675781 358.84375 18.148438 Z M 358.84375 18.148438 "/>
</g>
</svg>
